<svg id="height" xmlns="http://www.w3.org/2000/svg" xmlns:xlink="http://www.w3.org/1999/xlink" width="24" height="27.482" viewBox="0 0 24 27.482">
  <defs>
    <clipPath id="clip-path">
      <rect id="Rectangle_2296" data-name="Rectangle 2296" width="24" height="27.482" fill="none"/>
    </clipPath>
  </defs>
  <g id="Group_2616" data-name="Group 2616" clip-path="url(#clip-path)">
    <path id="Path_2949" data-name="Path 2949" d="M72.438,7.543A3.771,3.771,0,1,1,76.21,3.771a3.776,3.776,0,0,1-3.771,3.771m0-5.479a1.707,1.707,0,1,0,1.707,1.707,1.709,1.709,0,0,0-1.707-1.707" transform="translate(-54.495)" fill="#9ddf3e"/>
    <path id="Path_2950" data-name="Path 2950" d="M67.441,61.352H60.013l-.645-6.561H57.6V47.06a4.386,4.386,0,0,1,4.381-4.382h3.35a4.386,4.386,0,0,1,4.381,4.382v7.731H67.957Zm-5.556-2.064h3.648l.516-6.561h1.6V47.06a2.32,2.32,0,0,0-2.317-2.318h-3.35a2.32,2.32,0,0,0-2.317,2.318v5.667h1.578Z" transform="translate(-45.709 -33.87)" fill="#9ddf3e"/>
    <rect id="Rectangle_2291" data-name="Rectangle 2291" width="7.124" height="2.064" transform="translate(0 0.589)" fill="#9ddf3e"/>
    <rect id="Rectangle_2292" data-name="Rectangle 2292" width="7.124" height="2.064" transform="translate(0 6.796)" fill="#9ddf3e"/>
    <rect id="Rectangle_2293" data-name="Rectangle 2293" width="7.124" height="2.064" transform="translate(0 13.004)" fill="#9ddf3e"/>
    <rect id="Rectangle_2294" data-name="Rectangle 2294" width="7.124" height="2.064" transform="translate(0 19.211)" fill="#9ddf3e"/>
    <rect id="Rectangle_2295" data-name="Rectangle 2295" width="7.124" height="2.064" transform="translate(0 25.419)" fill="#9ddf3e"/>
  </g>
</svg>
