<svg id="weight" xmlns="http://www.w3.org/2000/svg" xmlns:xlink="http://www.w3.org/1999/xlink" width="29.5" height="29.5" viewBox="0 0 29.5 29.5">
  <defs>
    <clipPath id="clip-path">
      <rect id="Rectangle_2297" data-name="Rectangle 2297" width="29.5" height="29.5" fill="none"/>
    </clipPath>
  </defs>
  <g id="Group_2618" data-name="Group 2618" clip-path="url(#clip-path)">
    <path id="Path_2951" data-name="Path 2951" d="M24.8,29.5H4.7A4.7,4.7,0,0,1,0,24.8V4.7A4.7,4.7,0,0,1,4.7,0H24.8a4.7,4.7,0,0,1,4.7,4.7V24.8a4.7,4.7,0,0,1-4.7,4.7M4.7,2.515A2.187,2.187,0,0,0,2.515,4.7V24.8A2.187,2.187,0,0,0,4.7,26.985H24.8A2.187,2.187,0,0,0,26.985,24.8V4.7A2.187,2.187,0,0,0,24.8,2.515Z" fill="#9ddf3e"/>
    <path id="Path_2952" data-name="Path 2952" d="M38.806,38.077H22.51a1.257,1.257,0,0,1-1.257-1.257,9.405,9.405,0,1,1,18.811,0,1.258,1.258,0,0,1-1.257,1.257M23.883,35.562H37.434a6.892,6.892,0,0,0-13.551,0" transform="translate(-15.908 -20.52)" fill="#9ddf3e"/>
    <path id="Path_2953" data-name="Path 2953" d="M54.908,50.2a1.258,1.258,0,0,1-1.063-1.927L56.409,44.2a1.257,1.257,0,1,1,2.128,1.339l-2.564,4.074a1.257,1.257,0,0,1-1.065.588" transform="translate(-40.159 -32.645)" fill="#9ddf3e"/>
  </g>
</svg>
